<?xml version="1.0" encoding="UTF-8" standalone="no"?>
<svg
   xmlns:dc="http://purl.org/dc/elements/1.1/"
   xmlns:cc="http://creativecommons.org/ns#"
   xmlns:rdf="http://www.w3.org/1999/02/22-rdf-syntax-ns#"
   xmlns:svg="http://www.w3.org/2000/svg"
   xmlns="http://www.w3.org/2000/svg"
   xmlns:sodipodi="http://sodipodi.sourceforge.net/DTD/sodipodi-0.dtd"
   xmlns:inkscape="http://www.inkscape.org/namespaces/inkscape"
   width="1000"
   height="1000"
   class="img-fluid mb-3 mb-md-0"
   role="img"
   viewBox="0 0 2000 2000"
   focusable="false"
   version="1.1"
   id="svg67"
   sodipodi:docname="project-logo.svg"
   inkscape:export-filename="/home/vitex/Projects/VitexSoftware/ease-bootstrap4/bootstrap4.png"
   inkscape:export-xdpi="30.15"
   inkscape:export-ydpi="30.15"
   inkscape:version="1.0.2 (e86c870879, 2021-01-15)">
  <metadata
     id="metadata71">
    <rdf:RDF>
      <cc:Work
         rdf:about="">
        <dc:format>image/svg+xml</dc:format>
        <dc:type
           rdf:resource="http://purl.org/dc/dcmitype/StillImage" />
        <dc:title>Bootstrap</dc:title>
      </cc:Work>
    </rdf:RDF>
  </metadata>
  <sodipodi:namedview
     pagecolor="#ffffff"
     bordercolor="#666666"
     borderopacity="1"
     objecttolerance="10"
     gridtolerance="10"
     guidetolerance="10"
     inkscape:pageopacity="0"
     inkscape:pageshadow="2"
     inkscape:window-width="1920"
     inkscape:window-height="1031"
     id="namedview69"
     showgrid="false"
     inkscape:zoom="0.54883721"
     inkscape:cx="-118.62278"
     inkscape:cy="506.52542"
     inkscape:window-x="0"
     inkscape:window-y="28"
     inkscape:window-maximized="1"
     inkscape:current-layer="layer3"
     inkscape:document-rotation="0" />
  <title
     id="title2">Bootstrap</title>
  <defs
     id="defs43">
    <linearGradient
       id="c"
       x1="357.80527"
       x2="357.80527"
       y1="268.96548"
       y2="983.32874"
       gradientTransform="scale(1.2198451,0.81977622)"
       gradientUnits="userSpaceOnUse">
      <stop
         offset="0%"
         stop-color="#5C24AE"
         id="stop4" />
      <stop
         offset="100%"
         stop-color="#30135A"
         id="stop6" />
    </linearGradient>
    <path
       id="b"
       d="m 355.967,242.807 -322,216.395 c -44.275,29.754 -44.275,78.443 0,108.197 l 322,216.395 c 44.275,29.754 116.725,29.754 161,0 l 322,-216.395 c 44.275,-29.754 44.275,-78.443 0,-108.197 l -322,-216.395 c -44.275,-29.754 -116.725,-29.754 -161,0 z"
       inkscape:connector-curvature="0" />
    <filter
       id="a"
       width="1.08"
       height="1.12"
       x="-0.039999999"
       y="-0.043000001"
       filterUnits="objectBoundingBox">
      <feOffset
         dy="10"
         in="SourceAlpha"
         result="shadowOffsetOuter1"
         id="feOffset10" />
      <feGaussianBlur
         in="shadowOffsetOuter1"
         result="shadowBlurOuter1"
         stdDeviation="10"
         id="feGaussianBlur12" />
      <feColorMatrix
         in="shadowBlurOuter1"
         values="0 0 0 0 0 0 0 0 0 0 0 0 0 0 0 0 0 0 0.25 0"
         id="feColorMatrix14" />
    </filter>
    <linearGradient
       id="f"
       x1="357.80527"
       x2="357.80527"
       y1="11.17625"
       y2="849.14575"
       gradientTransform="scale(1.2198451,0.81977622)"
       gradientUnits="userSpaceOnUse">
      <stop
         offset="0%"
         stop-color="#7331D4"
         id="stop17" />
      <stop
         offset="100%"
         stop-color="#461B84"
         id="stop19" />
    </linearGradient>
    <path
       id="e"
       d="m 355.967,132.807 -322,216.395 c -44.275,29.754 -44.275,78.443 0,108.197 l 322,216.395 c 44.275,29.754 116.725,29.754 161,0 l 322,-216.395 c 44.275,-29.754 44.275,-78.443 0,-108.197 l -322,-216.395 c -44.275,-29.754 -116.725,-29.754 -161,0 z"
       inkscape:connector-curvature="0" />
    <filter
       id="d"
       width="1.08"
       height="1.12"
       x="-0.039999999"
       y="-0.043000001"
       filterUnits="objectBoundingBox">
      <feOffset
         dy="10"
         in="SourceAlpha"
         result="shadowOffsetOuter1"
         id="feOffset23" />
      <feGaussianBlur
         in="shadowOffsetOuter1"
         result="shadowBlurOuter1"
         stdDeviation="10"
         id="feGaussianBlur25" />
      <feColorMatrix
         in="shadowBlurOuter1"
         values="0 0 0 0 0 0 0 0 0 0 0 0 0 0 0 0 0 0 0.25 0"
         id="feColorMatrix27" />
    </filter>
    <linearGradient
       id="i"
       x1="357.80527"
       x2="357.80527"
       y1="0.59955388"
       y2="714.96283"
       gradientTransform="scale(1.2198451,0.81977622)"
       gradientUnits="userSpaceOnUse">
      <stop
         offset="0%"
         stop-color="#905BDD"
         id="stop30" />
      <stop
         offset="100%"
         stop-color="#5521A0"
         id="stop32" />
    </linearGradient>
    <path
       id="h"
       d="m 355.967,22.807 -322,216.395 c -44.275,29.754 -44.275,78.443 0,108.197 l 322,216.395 c 44.275,29.754 116.725,29.754 161,0 l 322,-216.395 c 44.275,-29.754 44.275,-78.443 0,-108.197 l -322,-216.395 c -44.275,-29.754 -116.725,-29.754 -161,0 z"
       inkscape:connector-curvature="0" />
    <filter
       id="g"
       width="1.08"
       height="1.12"
       x="-0.039999999"
       y="-0.043000001"
       filterUnits="objectBoundingBox">
      <feOffset
         dy="10"
         in="SourceAlpha"
         result="shadowOffsetOuter1"
         id="feOffset36" />
      <feGaussianBlur
         in="shadowOffsetOuter1"
         result="shadowBlurOuter1"
         stdDeviation="10"
         id="feGaussianBlur38" />
      <feColorMatrix
         in="shadowBlurOuter1"
         values="0 0 0 0 0 0 0 0 0 0 0 0 0 0 0 0 0 0 0.25 0"
         id="feColorMatrix40" />
    </filter>
    <clipPath
       id="clipPath3468">
      <path
         inkscape:connector-curvature="0"
         id="path3470"
         d="M 0,324 H 576 V 0 H 0 Z" />
    </clipPath>
    <clipPath
       id="clipPath3444">
      <path
         inkscape:connector-curvature="0"
         id="path3446"
         d="M 11.52,162 C 11.52,81.677 135.307,16.56 288,16.56 440.693,16.56 564.48,81.678 564.48,162 564.48,242.322 440.693,307.44 288,307.44 135.307,307.44 11.52,242.32 11.52,162" />
    </clipPath>
    <radialGradient
       id="radialGradient3452"
       cx="0"
       cy="0"
       r="1"
       fx="0"
       fy="0"
       gradientTransform="matrix(363.06,0,0,-363.06,177.52,256.31)"
       gradientUnits="userSpaceOnUse"
       spreadMethod="pad">
      <stop
         id="stop3454"
         offset="0"
         stop-color="#aeb2d5" />
      <stop
         id="stop3456"
         offset="0.3"
         stop-color="#aeb2d5" />
      <stop
         id="stop3458"
         offset="0.75"
         stop-color="#484c89" />
      <stop
         id="stop3460"
         offset="1"
         stop-color="#484c89" />
    </radialGradient>
    <linearGradient
       id="bs-logo-a"
       x1="76.079002"
       x2="523.47998"
       y1="10.798"
       y2="365.94501"
       gradientUnits="userSpaceOnUse">
      <stop
         stop-color="#9013fe"
         id="stop227" />
      <stop
         offset="1"
         stop-color="#6610f2"
         id="stop229" />
    </linearGradient>
    <linearGradient
       id="bs-logo-b"
       x1="193.508"
       x2="293.51401"
       y1="109.74"
       y2="278.87201"
       gradientUnits="userSpaceOnUse">
      <stop
         stop-color="#fff"
         id="stop232" />
      <stop
         offset="1"
         stop-color="#f1e5fc"
         id="stop234" />
    </linearGradient>
    <filter
       id="bs-logo-c"
       width="197"
       height="249"
       x="161.901"
       y="83.457001"
       color-interpolation-filters="sRGB"
       filterUnits="userSpaceOnUse">
      <feFlood
         flood-opacity="0"
         result="BackgroundImageFix"
         id="feFlood237" />
      <feColorMatrix
         in="SourceAlpha"
         values="0 0 0 0 0 0 0 0 0 0 0 0 0 0 0 0 0 0 127 0"
         id="feColorMatrix239" />
      <feOffset
         dy="4"
         id="feOffset241" />
      <feGaussianBlur
         stdDeviation="8"
         id="feGaussianBlur243" />
      <feColorMatrix
         values="0 0 0 0 0 0 0 0 0 0 0 0 0 0 0 0 0 0 0.15 0"
         id="feColorMatrix245" />
      <feBlend
         in2="BackgroundImageFix"
         result="effect1_dropShadow"
         id="feBlend247"
         mode="normal" />
      <feBlend
         in="SourceGraphic"
         in2="effect1_dropShadow"
         result="shape"
         id="feBlend249"
         mode="normal" />
    </filter>
    <filter
       inkscape:menu-tooltip="In and out glow with a possible offset and colorizable flood"
       inkscape:menu="Shadows and Glows"
       inkscape:label="Cutout Glow"
       style="color-interpolation-filters:sRGB;"
       id="filter374">
      <feOffset
         dy="3"
         dx="3"
         id="feOffset364" />
      <feGaussianBlur
         stdDeviation="3"
         result="blur"
         id="feGaussianBlur366" />
      <feFlood
         flood-color="rgb(0,0,0)"
         flood-opacity="1"
         result="flood"
         id="feFlood368" />
      <feComposite
         in="flood"
         in2="SourceGraphic"
         operator="in"
         result="composite"
         id="feComposite370" />
      <feBlend
         in="blur"
         in2="composite"
         mode="normal"
         id="feBlend372" />
    </filter>
  </defs>
  <g
     inkscape:groupmode="layer"
     id="layer1"
     inkscape:label="Ease"
     transform="translate(0,1140)" />
  <g
     inkscape:groupmode="layer"
     id="layer2"
     inkscape:label="Slon"
     transform="translate(0,1140)" />
  <g
     inkscape:groupmode="layer"
     id="layer3"
     inkscape:label="Bootstrap"
     transform="translate(0,1140)">
    <g
       transform="matrix(2.4999968,0,0,-2.4999968,285.7636,270.16897)"
       id="g3440">
      <g
         id="g3442"
         clip-path="url(#clipPath3444)">
        <g
           id="g3448">
          <g
             id="g3450">
            <path
               id="path3462"
               d="M 11.52,162 C 11.52,81.677 135.307,16.56 288,16.56 440.693,16.56 564.48,81.678 564.48,162 564.48,242.322 440.693,307.44 288,307.44 135.307,307.44 11.52,242.32 11.52,162"
               style="fill:url(#radialGradient3452)"
               inkscape:connector-curvature="0" />
          </g>
        </g>
      </g>
    </g>
    <g
       transform="matrix(2.4999968,0,0,-2.4999968,285.7636,270.16897)"
       id="g3464">
      <g
         id="g3466"
         clip-path="url(#clipPath3468)">
        <g
           id="g3472"
           transform="translate(288,27.36)">
          <path
             id="path3474"
             d="M 0,0 C 146.73,0 265.68,60.28 265.68,134.64 265.68,209 146.73,269.283 0,269.283 c -146.73,0 -265.68,-60.282 -265.68,-134.64 C -265.68,60.28 -146.73,0 0,0"
             inkscape:connector-curvature="0"
             style="fill:#777bb3" />
        </g>
      </g>
    </g>
    <g
       id="g5207"
       transform="matrix(2.1333334,0,0,2.1333334,569.05252,-415.40271)">
      <path
         id="path2383"
         style="fill:#939dac;stroke:#000000;stroke-width:4;stroke-linecap:round;stroke-linejoin:round"
         d="M 243.77,129.57 C 243.78,190.08 194.74,239.14 134.23,239.14 73.721,239.14 24.67,190.08 24.69,129.57 24.674,69.061 73.721,20 134.23,20 c 60.51,0 109.55,49.061 109.54,109.57 z"
         inkscape:connector-curvature="0" />
      <path
         id="path3353"
         style="fill:#000000;fill-opacity:0.31373"
         d="m 243.34,139.16 c -20.83,45.69 -66.93,77.46 -120.43,77.46 -30.331,0 -58.255,-10.21 -80.566,-27.37 19.534,30.03 53.378,49.87 91.876,49.87 57.28,0 104.28,-43.94 109.12,-99.96 z"
         inkscape:connector-curvature="0" />
      <path
         id="path3245"
         style="fill:#939dac;stroke:#000000;stroke-width:4;stroke-linecap:round;stroke-linejoin:round"
         d="m 50.172,230.07 c -0.006,22.68 18.377,25.57 41.057,25.57 22.681,0 41.061,-2.89 41.061,-25.57 0,-22.68 -19.15,-35.2 -41.061,-41.07 -34.081,-9.13 -41.063,18.39 -41.057,41.07 z"
         inkscape:connector-curvature="0" />
      <path
         id="path3239"
         style="fill:#ffffff;stroke:#000000;stroke-width:4;stroke-linecap:round;stroke-linejoin:round"
         d="m 123.19,242.86 c 1.64,6.13 -3.25,8.27 -9.55,9.96 -6.29,1.69 -11.61,2.27 -13.25,-3.85 -1.641,-6.13 2.13,-12.47 8.43,-14.15 6.29,-1.69 12.73,1.91 14.37,8.04 z"
         inkscape:connector-curvature="0" />
      <path
         id="path3307"
         style="fill:#000000;fill-opacity:0.31373"
         d="m 225.27,104.57 c 0.02,47.81 -38.73,86.57 -86.54,86.57 -47.808,0 -86.559,-38.76 -86.544,-86.57 C 52.171,56.763 90.922,18 138.73,18 c 47.81,0 86.56,38.763 86.54,86.57 z"
         inkscape:connector-curvature="0" />
      <path
         id="path2400"
         style="fill:#939dac;stroke:#000000;stroke-width:4;stroke-linecap:round;stroke-linejoin:round"
         d="m 265.51,90.103 c -8.95,33.437 -36.06,55.237 -60.55,48.677 -24.48,-6.56 -37.06,-38.991 -28.09,-72.429 8.95,-33.441 29.98,-32.537 54.46,-25.977 24.49,6.56 43.15,16.292 34.18,49.729 z"
         inkscape:connector-curvature="0" />
      <path
         id="path3218"
         style="fill:#939dac;stroke:#000000;stroke-width:4;stroke-linecap:round;stroke-linejoin:round"
         d="m 4.2862,90.103 c 8.9528,33.437 36.063,55.237 60.547,48.677 24.483,-6.56 37.067,-38.991 28.096,-72.429 -8.953,-33.441 -29.981,-32.537 -54.464,-25.977 -24.483,6.56 -43.146,16.292 -34.179,49.729 z"
         inkscape:connector-curvature="0" />
      <path
         id="path3309"
         style="fill:#000000;fill-opacity:0.31373"
         d="m 198.94,38.179 c -9.74,2.974 -17.48,11.084 -22.06,28.188 -8.97,33.437 3.61,65.843 28.09,72.403 2.67,0.72 5.36,1.06 8.07,1.13 6.68,-12.28 10.47,-26.38 10.46,-41.346 0.01,-23.492 -9.37,-44.777 -24.56,-60.375 z"
         inkscape:connector-curvature="0" />
      <path
         id="path3314"
         style="fill:#000000;fill-opacity:0.31373"
         d="m 205.16,43.242 c -14.77,-0.154 -26.63,6.634 -32.78,29.625 -4.97,18.526 -3.34,36.723 3.28,50.403 4.97,-23.475 27.2,-52.561 60.06,-53.997 13.33,-0.582 28.81,8.047 24.32,-2.469 -4.5,-10.515 -18.42,-15.97 -33.22,-19.937 -7.65,-2.05 -14.95,-3.555 -21.66,-3.625 z"
         inkscape:connector-curvature="0" />
      <path
         id="path3321"
         style="fill:#000000;fill-opacity:0.31373"
         d="M 65.15,43.242 C 79.919,43.088 91.777,49.876 97.932,72.867 102.9,91.393 101.27,109.59 94.65,123.27 89.686,99.795 67.453,70.709 34.588,69.273 21.26,68.691 5.779,77.32 10.275,66.804 14.771,56.289 28.687,50.834 43.494,46.867 51.145,44.817 58.437,43.312 65.15,43.242 Z"
         inkscape:connector-curvature="0" />
      <path
         id="path2398"
         style="fill:#939dac;stroke:#000000;stroke-width:4;stroke-linecap:round;stroke-linejoin:round"
         d="m 220.77,88.569 c 0.02,47.811 -38.73,86.571 -86.54,86.571 -47.808,0 -86.559,-38.76 -86.544,-86.571 C 47.671,40.763 63.763,2 134.23,2 c 71.88,0 86.56,38.763 86.54,86.569 z"
         inkscape:connector-curvature="0" />
      <path
         id="path3157"
         style="fill:#ffffff;stroke:#000000;stroke-width:4;stroke-linecap:round;stroke-linejoin:round"
         d="m 130.6,72.099 c 0,12.519 -10.14,22.67 -22.66,22.67 -12.522,0 -22.67,-10.151 -22.666,-22.67 C 85.27,59.58 95.418,49.43 107.94,49.43 c 12.52,0 22.66,10.15 22.66,22.669 z"
         inkscape:connector-curvature="0" />
      <path
         id="path3159"
         style="fill:#ffffff;stroke:#000000;stroke-width:4;stroke-linecap:round;stroke-linejoin:round"
         d="m 183.33,72.099 c 0.01,12.519 -10.14,22.67 -22.66,22.67 -12.52,0 -22.67,-10.151 -22.66,-22.67 C 138,59.58 148.15,49.43 160.67,49.43 c 12.52,0 22.67,10.15 22.66,22.669 z"
         inkscape:connector-curvature="0" />
      <path
         id="path3161"
         style="fill:#000000"
         d="m 163.19,76.099 c 0,4.173 -3.38,7.557 -7.56,7.557 -4.17,0 -7.55,-3.384 -7.55,-7.557 0,-4.173 3.38,-7.556 7.55,-7.556 4.18,0 7.56,3.383 7.56,7.556 z"
         inkscape:connector-curvature="0" />
      <path
         id="path3163"
         style="fill:#000000"
         d="m 121.16,76.099 c 0,4.173 -3.38,7.557 -7.56,7.557 -4.17,0 -7.55,-3.384 -7.55,-7.557 0,-4.173 3.38,-7.556 7.55,-7.556 4.18,0 7.56,3.383 7.56,7.556 z"
         inkscape:connector-curvature="0" />
      <path
         id="path3220"
         style="fill:#939dac;stroke:#000000;stroke-width:4;stroke-linecap:round;stroke-linejoin:round"
         d="m 224.29,230.07 c 0,22.68 -18.38,25.57 -41.06,25.57 -22.68,0 -41.06,-2.89 -41.06,-25.57 0,-22.68 19.15,-35.2 41.06,-41.07 34.08,-9.13 41.06,18.39 41.06,41.07 z"
         inkscape:connector-curvature="0" />
      <path
         id="path3297"
         style="fill:#000000;fill-opacity:0.31373"
         d="m 104.22,193.49 c 5.62,7.36 9.07,16.56 9.07,27.91 0,26.82 -18.387,30.25 -41.066,30.25 -3.51,0 -6.905,-0.11 -10.157,-0.35 7.44,3.61 17.752,4.35 29.157,4.35 22.676,0 41.066,-2.92 41.066,-25.6 0,-18.02 -12.1,-29.61 -28.07,-36.56 z"
         inkscape:connector-curvature="0" />
      <path
         id="path2404"
         style="fill:#939dac;stroke:#000000;stroke-width:4;stroke-linecap:round;stroke-linejoin:round"
         d="m 157.46,220.5 c 0,15.78 -12.8,28.58 -28.58,28.58 -15.79,0 -28.59,-12.8 -28.58,-28.58 -0.01,-15.79 12.79,-28.59 28.58,-28.59 15.78,0 28.58,12.8 28.58,28.59 z"
         inkscape:connector-curvature="0" />
      <path
         id="path3241"
         style="fill:#ffffff;stroke:#000000;stroke-width:4;stroke-linecap:round;stroke-linejoin:round"
         d="m 81.746,249.5 c -1.64,6.13 -6.952,5.54 -13.248,3.85 -6.296,-1.69 -11.19,-3.83 -9.546,-9.96 1.64,-6.13 8.074,-9.73 14.37,-8.04 6.296,1.69 10.068,8.02 8.424,14.15 z"
         inkscape:connector-curvature="0" />
      <path
         id="path3302"
         style="fill:#000000;fill-opacity:0.31373"
         d="m 219.25,72.461 c -4.93,47.579 -45.14,84.689 -94.03,84.689 -26.647,0 -50.717,-11.04 -67.903,-28.78 14.4,27.79 43.443,46.78 76.903,46.78 47.81,0 86.58,-38.79 86.57,-86.596 0,-5.504 -0.55,-10.875 -1.54,-16.093 z"
         inkscape:connector-curvature="0" />
      <path
         id="path3188"
         style="fill:#939dac;fill-rule:evenodd"
         d="m 157.39,218.99 h -45.68 c 7.66,-63.28 -7.36,-94.75 -7.36,-94.75 h 60.4 c 0,0 -15.02,32.17 -7.36,94.75 z"
         inkscape:connector-curvature="0" />
      <path
         id="path3183"
         style="fill:none;stroke:#000000;stroke-width:4;stroke-linecap:round"
         d="m 164.75,124.24 c 0,0 -15.02,32.17 -7.36,94.75 m -45.68,0 c 7.66,-63.28 -7.36,-94.75 -7.36,-94.75"
         inkscape:connector-curvature="0" />
      <path
         id="path3190"
         style="fill:#ffffff;fill-rule:evenodd;stroke:#000000;stroke-width:4;stroke-linejoin:round"
         d="m 187.44,131.78 c 6.52,5.2 6.05,33.51 2.19,38.21 -3.87,4.69 -26.86,-23.58 -22.93,-32.29 4.13,-9.16 14.61,-10.82 20.74,-5.92 z"
         inkscape:connector-curvature="0" />
      <path
         id="path3192"
         style="fill:none;stroke:#000000;stroke-width:4;stroke-linecap:round"
         d="m 118.69,113.03 c 14.5,-14.499 31,-0.5 31,-0.5"
         inkscape:connector-curvature="0" />
      <path
         id="path3194"
         style="fill:none;stroke:#000000;stroke-width:4;stroke-linecap:round"
         d="m 123.66,135.53 c 9.85,-7.89 21.07,-0.27 21.07,-0.27"
         inkscape:connector-curvature="0" />
      <path
         id="path3196"
         style="fill:none;stroke:#000000;stroke-width:4;stroke-linecap:round"
         d="m 125.31,158.03 c 8.31,-5.68 17.76,-0.2 17.76,-0.2"
         inkscape:connector-curvature="0" />
      <path
         id="path3214"
         style="fill:#ffffff;fill-rule:evenodd;stroke:#000000;stroke-width:4;stroke-linejoin:round"
         d="m 80.765,131.78 c -6.52,5.2 -6.053,33.51 -2.187,38.21 3.866,4.69 26.852,-23.58 22.922,-32.29 -4.129,-9.16 -14.602,-10.82 -20.735,-5.92 z"
         inkscape:connector-curvature="0" />
      <path
         id="path3235"
         style="fill:#ffffff;stroke:#000000;stroke-width:4;stroke-linecap:round;stroke-linejoin:round"
         d="m 216.19,242.86 c 1.64,6.13 -3.25,8.27 -9.55,9.96 -6.29,1.69 -11.61,2.27 -13.25,-3.85 -1.64,-6.13 2.13,-12.47 8.43,-14.15 6.29,-1.69 12.73,1.91 14.37,8.04 z"
         inkscape:connector-curvature="0" />
      <path
         id="path3237"
         style="fill:#ffffff;stroke:#000000;stroke-width:4;stroke-linecap:round;stroke-linejoin:round"
         d="m 174.75,249.5 c -1.64,6.13 -6.96,5.54 -13.25,3.85 -6.3,-1.69 -11.19,-3.83 -9.55,-9.96 1.64,-6.13 8.08,-9.73 14.37,-8.04 6.3,1.69 10.07,8.02 8.43,14.15 z"
         inkscape:connector-curvature="0" />
      <path
         id="path3224"
         style="fill:#ffffff;stroke:#000000;stroke-width:4;stroke-linecap:round;stroke-linejoin:round"
         d="m 195.03,248.49 c 0,6.34 -5.28,7.15 -11.8,7.15 -6.52,0 -11.8,-0.81 -11.8,-7.15 0,-6.35 5.28,-11.49 11.8,-11.49 6.52,0 11.8,5.14 11.8,11.49 z"
         inkscape:connector-curvature="0" />
      <path
         id="path3243"
         style="fill:#ffffff;stroke:#000000;stroke-width:4;stroke-linecap:round;stroke-linejoin:round"
         d="m 102.03,248.49 c 0,6.34 -5.283,7.15 -11.801,7.15 -6.518,0 -11.801,-0.81 -11.799,-7.15 -0.002,-6.35 5.281,-11.49 11.799,-11.49 6.518,0 11.801,5.14 11.801,11.49 z"
         inkscape:connector-curvature="0" />
      <path
         id="path3287"
         style="fill:#000000;fill-opacity:0.31373"
         d="m 155.32,209.62 c -0.41,15.42 -13.04,27.81 -28.57,27.81 -11.94,0 -22.16,-7.35 -26.43,-17.75 -0.01,0.27 -0.03,0.54 -0.03,0.81 -0.01,15.79 12.8,28.6 28.59,28.6 15.79,0 28.57,-12.81 28.56,-28.6 0,-3.85 -0.74,-7.52 -2.12,-10.87 z"
         inkscape:connector-curvature="0" />
      <path
         id="path3358"
         style="fill:#000000;fill-opacity:0.31373"
         d="m 201.75,187.81 c 10.56,8.16 13.35,24.67 13.34,39.25 0.01,23.47 -19,26.47 -42.47,26.47 -5.09,0 -9.94,-0.16 -14.46,-0.62 6.93,2.22 15.62,2.71 25.06,2.71 22.68,0 41.07,-2.88 41.06,-25.56 0.01,-17.77 -4.28,-38.49 -22.53,-42.25 z"
         inkscape:connector-curvature="0" />
      <path
         id="path3363"
         style="fill:#000000;fill-opacity:0.31373;fill-rule:evenodd"
         d="m 94.656,130.47 c 0.777,0.84 1.503,1.81 2.125,2.91 4.549,7.97 -13.959,36.28 -19.219,34.65 0.306,0.85 0.629,1.52 1,1.97 3.867,4.7 26.868,-23.61 22.938,-32.31 -1.567,-3.47 -4.037,-5.85 -6.844,-7.22 z"
         inkscape:connector-curvature="0" />
    </g>
    <g
       id="g292"
       transform="matrix(1.0219224,0,0,1.0219224,1023.5379,-338.70653)"
       style="filter:url(#filter374)">
      <path
         fill="url(#bs-logo-a)"
         d="M 56.481,53.32 C 55.515,25.58 77.128,0 106.342,0 h 299.353 c 29.214,0 50.827,25.58 49.861,53.32 -0.928,26.647 0.277,61.165 8.964,89.31 8.715,28.232 23.411,46.077 47.48,48.37 v 26 c -24.069,2.293 -38.765,20.138 -47.48,48.37 -8.687,28.145 -9.892,62.663 -8.964,89.311 C 456.522,382.42 434.909,408 405.695,408 H 106.342 C 77.128,408 55.515,382.42 56.482,354.681 57.409,328.033 56.204,293.515 47.516,265.37 38.802,237.138 24.07,219.293 0,217 v -26 c 24.069,-2.293 38.802,-20.138 47.516,-48.37 8.688,-28.145 9.893,-62.663 8.965,-89.31 z"
         id="path254"
         style="fill:url(#bs-logo-a)" />
      <path
         fill="url(#bs-logo-b)"
         filter="url(#bs-logo-c)"
         stroke="#ffffff"
         d="m 267.103,312.457 c 47.297,0 75.798,-23.158 75.798,-61.355 0,-28.873 -20.336,-49.776 -50.532,-53.085 v -1.203 c 22.185,-3.609 39.594,-24.211 39.594,-47.219 0,-32.783 -25.882,-54.138 -65.322,-54.138 h -88.74 v 217 z m -54.692,-189.48 h 45.911 c 24.958,0 39.131,11.128 39.131,31.279 0,21.505 -16.484,33.535 -46.372,33.535 h -38.67 z m 0,161.961 v -71.431 h 45.602 c 32.661,0 49.608,12.03 49.608,35.49 0,23.459 -16.484,35.941 -47.605,35.941 z"
         id="path256"
         style="fill:url(#bs-logo-b)" />
    </g>
  </g>
</svg>
